HIERARCHY
ROOT Hips
{
 OFFSET 0.000000 0.000000 0.000000
 CHANNELS 6 Xposition Yposition Zposition Yrotation Xrotation Zrotation
 JOINT Chest
 {
  OFFSET 0.000000 9.585900 0.002600
  CHANNELS 3 Yrotation Xrotation Zrotation
  JOINT Chest2
  {
   OFFSET 0.000000 9.601200 -0.005300
   CHANNELS 3 Yrotation Xrotation Zrotation
   JOINT Chest3
   {
    OFFSET 0.000000 9.561800 0.000000
    CHANNELS 3 Yrotation Xrotation Zrotation
    JOINT Chest4
    {
     OFFSET 0.000000 9.552100 0.000000
     CHANNELS 3 Yrotation Xrotation Zrotation
     JOINT Neck
     {
      OFFSET 0.000000 14.453000 0.000000
      CHANNELS 3 Yrotation Xrotation Zrotation
      JOINT Head
      {
       OFFSET 0.000000 8.936500 -0.011300
       CHANNELS 3 Yrotation Xrotation Zrotation
       End Site
       {
        OFFSET 0.000000 17.073600 -0.006000
       }
      }
     }
     JOINT RightCollar
     {
      OFFSET -2.921100 9.558500 0.000000
      CHANNELS 3 Yrotation Xrotation Zrotation
      JOINT RightShoulder
      {
       OFFSET -13.519700 0.000000 0.000000
       CHANNELS 3 Yrotation Xrotation Zrotation
       JOINT RightElbow
       {
        OFFSET 0.000000 -29.696600 0.000000
        CHANNELS 3 Yrotation Xrotation Zrotation
        JOINT RightWrist
        {
         OFFSET 0.000000 -24.004700 0.000000
         CHANNELS 3 Yrotation Xrotation Zrotation
         End Site
         {
          OFFSET 0.000000 -17.728500 0.000000
         }
        }
       }
      }
     }
     JOINT LeftCollar
     {
      OFFSET 2.921100 9.558500 0.000000
      CHANNELS 3 Yrotation Xrotation Zrotation
      JOINT LeftShoulder
      {
       OFFSET 13.519700 0.000000 0.000000
       CHANNELS 3 Yrotation Xrotation Zrotation
       JOINT LeftElbow
       {
        OFFSET 0.000000 -29.696600 0.000000
        CHANNELS 3 Yrotation Xrotation Zrotation
        JOINT LeftWrist
        {
         OFFSET 0.000000 -24.004700 0.000000
         CHANNELS 3 Yrotation Xrotation Zrotation
         End Site
         {
          OFFSET 0.000000 -17.728500 0.000000
         }
        }
       }
      }
     }
    }
   }
  }
 }
 JOINT RightHip
 {
  OFFSET -7.771700 -0.012900 -0.001300
  CHANNELS 3 Yrotation Xrotation Zrotation
  JOINT RightKnee
  {
   OFFSET 0.000000 -40.869800 0.001200
   CHANNELS 3 Yrotation Xrotation Zrotation
   JOINT RightAnkle
   {
    OFFSET 0.000000 -39.717900 0.002100
    CHANNELS 3 Yrotation Xrotation Zrotation
    JOINT RightToe
    {
     OFFSET 0.000000 -4.965400 11.033500
     CHANNELS 3 Yrotation Xrotation Zrotation
     End Site
     {
      OFFSET 0.000000 -1.423100 5.872300
     }
    }
   }
  }
 }
 JOINT LeftHip
 {
  OFFSET 7.771700 -0.012900 -0.001300
  CHANNELS 3 Yrotation Xrotation Zrotation
  JOINT LeftKnee
  {
   OFFSET 0.000000 -40.869800 0.001200
   CHANNELS 3 Yrotation Xrotation Zrotation
   JOINT LeftAnkle
   {
    OFFSET 0.000000 -39.717900 0.002100
    CHANNELS 3 Yrotation Xrotation Zrotation
    JOINT LeftToe
    {
     OFFSET 0.000000 -4.965400 11.033500
     CHANNELS 3 Yrotation Xrotation Zrotation
     End Site
     {
      OFFSET 0.000000 -1.423100 5.872300
     }
    }
   }
  }
 }
}
MOTION
Frames: 8
Frame Time: 0.008333
0.000000 85.388000 0.000000 0.000000 -5.767877 0.000000 0.000000 11.653817 0.000000 0.000000 -5.885947 0.000000 0.000000 -0.000000 0.000000 0.000000 -0.000000 0.000000 0.000000 12.528835 0.000000 0.000000 0.711642 0.000000 0.000000 -0.000000 0.000000 0.000000 0.000000 -90.000000 0.000000 -2.309062 0.000000 0.000000 2.309062 0.000000 0.000000 -0.000000 0.000000 0.000000 -0.000000 90.000000 0.000000 -2.309062 0.000000 0.000000 2.309062 0.000000 0.000000 8.520406 0.000000 0.000000 1.905762 0.000000 -0.000000 -4.658285 0.000000 0.000000 -0.000000 0.000000 0.000000 8.520406 0.000000 0.000000 1.905762 0.000000 -0.000000 -4.658285 0.000000 0.000000 -0.000000 0.000000
-193.493805 57.949039 28.472776 172.025428 -48.067410 -3.169608 5.189603 22.163631 3.242436 2.695677 12.717213 1.627779 3.440771 15.773142 2.179663 2.691957 12.753271 1.601794 3.023310 18.655456 3.757040 4.361117 -0.923394 5.994439 0.926630 5.604004 0.306488 -8.864085 -13.563776 -4.504581 -76.509324 -35.727170 125.321868 -10.674815 -27.593542 -39.811053 -9.814378 2.657520 -0.726333 12.965560 -9.095534 8.528981 81.486675 -47.703116 -124.635554 14.310089 -26.277503 29.174748 4.597230 -24.482387 0.243942 -39.547801 73.340248 -41.213336 5.557454 -12.873963 9.711098 -0.017724 -0.128412 0.009326 -2.474980 -23.072906 11.523068 53.479304 79.613487 53.308878 4.622158 -15.986964 -16.509848 0.124427 0.165813 0.042503
-193.495614 57.952542 28.478928 172.034966 -48.134141 -3.176976 5.185180 22.197252 3.253054 2.689793 12.684814 1.642425 3.431369 15.766777 2.194496 2.684098 12.704316 1.642212 3.020287 18.834183 3.737647 4.370016 -0.710936 6.006253 0.991623 5.624179 0.290122 -8.785598 -13.560802 -4.547214 -75.878495 -35.219653 124.950100 -10.749140 -27.638120 -39.934756 -9.820624 2.730954 -0.815890 12.830542 -9.233994 8.495234 80.975347 -47.672448 -124.103560 14.371208 -26.260602 29.289114 4.598926 -24.409063 0.257001 -39.534601 73.319769 -41.201978 5.551681 -12.866404 9.715707 -0.011000 -0.124834 0.010503 -2.506047 -23.002484 11.513441 53.537458 79.599030 53.348410 4.635707 -15.978016 -16.511131 0.113856 0.165178 0.036355
-193.498968 57.954754 28.487804 172.048607 -48.197047 -3.181502 5.170590 22.187547 3.262918 2.682785 12.685445 1.653077 3.427000 15.803307 2.191753 2.672017 12.643021 1.679161 3.039510 19.012018 3.781160 4.375894 -0.528431 5.966373 1.067229 5.621108 0.290055 -8.709487 -13.551345 -4.580961 -75.269879 -34.712385 124.604802 -10.817633 -27.688598 -40.068661 -9.835269 2.696495 -0.865639 12.698239 -9.275047 8.465896 80.399491 -47.585439 -123.553177 14.455743 -26.261036 29.419270 4.596837 -24.341282 0.259992 -39.488327 73.301539 -41.158691 5.543207 -12.847956 9.720868 -0.006631 -0.124799 0.010661 -2.563970 -22.933123 11.491305 53.608345 79.571462 53.391688 4.658988 -15.956861 -16.523682 0.101457 0.164873 0.028824
-193.500678 57.958080 28.497544 172.065568 -48.273122 -3.199934 5.157891 22.185576 3.287187 2.674250 12.685834 1.663141 3.412613 15.778994 2.208776 2.670522 12.707053 1.662356 3.053094 19.084911 3.803991 4.398895 -0.310208 5.973027 1.142698 5.566892 0.316277 -8.634789 -13.544246 -4.602081 -74.698657 -34.224227 124.291041 -10.881159 -27.739796 -40.206758 -9.835708 2.678747 -0.881417 12.541252 -9.371481 8.435416 79.776706 -47.440220 -123.006443 14.549302 -26.277248 29.565556 4.587097 -24.261279 0.276563 -39.451536 73.287844 -41.122881 5.532150 -12.832713 9.725225 -0.011642 -0.127676 0.006895 -2.579690 -22.855430 11.489008 53.538502 79.558496 53.330747 4.651727 -15.937686 -16.537067 0.101693 0.158594 0.038123
-193.504295 57.961578 28.507981 172.083449 -48.353352 -3.209307 5.136427 22.182650 3.298739 2.662164 12.624522 1.683569 3.406892 15.821813 2.212957 2.662844 12.706525 1.673291 3.068708 19.226411 3.802091 4.428944 -0.090738 5.984754 1.204910 5.593392 0.317309 -8.553686 -13.546541 -4.611572 -74.173860 -33.775765 124.015665 -10.942112 -27.789509 -40.344732 -9.834021 2.751264 -0.935944 12.373514 -9.478908 8.411289 79.134254 -47.243212 -122.481341 14.639421 -26.305864 29.710309 4.584158 -24.174792 0.279819 -39.430949 73.267882 -41.100390 5.530894 -12.817841 9.732939 -0.006400 -0.129457 0.002091 -2.610195 -22.769785 11.473359 53.496176 79.531788 53.280639 4.653093 -15.911699 -16.549012 0.103202 0.156806 0.039861
-193.506022 57.964707 28.520157 172.092655 -48.430817 -3.225808 5.132444 22.177881 3.323305 2.661349 12.608247 1.693403 3.404726 15.842338 2.219561 2.658628 12.684930 1.688802 3.087786 19.369777 3.809579 4.464679 0.134347 6.006740 1.236684 5.634388 0.328796 -8.463417 -13.567741 -4.610830 -73.701382 -33.381782 123.773957 -10.996883 -27.835421 -40.472015 -9.842803 2.820184 -0.976617 12.200902 -9.564300 8.395582 78.506439 -47.003605 -121.999319 14.709233 -26.338882 29.834217 4.582125 -24.085407 0.288627 -39.355604 73.230653 -41.009477 5.543488 -12.793633 9.730077 -0.008915 -0.123378 -0.002663 -2.640171 -22.687956 11.476568 53.505725 79.509764 53.274726 4.649999 -15.901867 -16.552494 0.102145 0.161702 0.038817
-193.508872 57.974309 28.527187 172.109915 -48.558100 -3.238345 5.128431 22.191575 3.345114 2.658371 12.685021 1.692522 3.404590 15.842398 2.224273 2.658401 12.684999 1.692599 3.121315 19.465352 3.831988 4.507074 0.362698 6.039175 1.245226 5.648194 0.340046 -8.365830 -13.619814 -4.583673 -73.286099 -33.050232 123.560833 -11.038355 -27.871846 -40.576366 -9.838468 2.781776 -1.001558 12.019954 -9.577805 8.414287 77.926304 -46.739736 -121.587969 14.746627 -26.362733 29.929024 4.578554 -23.948293 0.291167 -39.306776 73.212475 -40.949821 5.555430 -12.769496 9.729914 -0.010157 -0.133831 -0.007422 -2.665978 -22.556468 11.466164 53.512882 79.486154 53.266483 4.649705 -15.868864 -16.554380 0.086690 0.142700 0.036388
